<mxfile host="app.diagrams.net" modified="2024-03-11T11:02:11.132Z" agent="Mozilla/5.0 (X11; Linux x86_64) AppleWebKit/537.36 (KHTML, like Gecko) Chrome/122.0.0.0 Safari/537.36" version="24.0.4" etag="Xz1mgAalEA7W9X6SIdI7" type="github">
  <diagram name="Page-1" id="Lj0GQ9VDrDpJvVr20pKh">
    <mxGraphModel>
      <root>
        <mxCell id="0" />
        <mxCell id="1" parent="0" />
      </root>
    </mxGraphModel>
  </diagram>
</mxfile>
